<svg width="24" height="24" viewBox="0 0 24 24" fill="none" xmlns="http://www.w3.org/2000/svg">
<path d="M21 4.125H3C2.70163 4.125 2.41548 4.24353 2.2045 4.4545C1.99353 4.66548 1.875 4.95163 1.875 5.25V18C1.87746 18.4965 2.0758 18.972 2.4269 19.3231C2.778 19.6742 3.25348 19.8725 3.75 19.875H20.25C20.7465 19.8725 21.222 19.6742 21.5731 19.3231C21.9242 18.972 22.1225 18.4965 22.125 18V5.25C22.125 4.95163 22.0065 4.66548 21.7955 4.4545C21.5845 4.24353 21.2984 4.125 21 4.125V4.125ZM18.1125 6.375L12 11.9719L5.8875 6.375H18.1125ZM4.125 17.625V7.80938L11.2406 14.325C11.447 14.5168 11.7183 14.6233 12 14.6233C12.2817 14.6233 12.553 14.5168 12.7594 14.325L19.875 7.80938V17.625H4.125Z" fill="#B11622"/>
</svg>
